<svg xmlns="http://www.w3.org/2000/svg" width="256" height="256" viewBox="0 0 256 256">
  <defs>
    <linearGradient id="g" x1="0" y1="0" x2="1" y2="1">
      <stop offset="0%" stop-color="#2563eb"/>
      <stop offset="100%" stop-color="#06b6d4"/>
    </linearGradient>
  </defs>
  <rect x="0" y="0" width="256" height="256" rx="56" fill="url(#g)"/>
  <g fill="#ffffff">
    <path d="M78 88c0-4.418 3.582-8 8-8h84c6.627 0 12 5.373 12 12s-5.373 12-12 12H86c-4.418 0-8-3.582-8-8z"/>
    <path d="M62 132c0-6.627 5.373-12 12-12h108c8.837 0 16 7.163 16 16s-7.163 16-16 16H74c-6.627 0-12-5.373-12-12z"/>
    <path d="M86 172c0-4.418 3.582-8 8-8h84c6.627 0 12 5.373 12 12s-5.373 12-12 12H94c-4.418 0-8-3.582-8-8z"/>
  </g>
</svg>
