<svg xmlns="http://www.w3.org/2000/svg" viewBox="0 0 512 512" fill="none">
  <rect width="512" height="512" rx="96" fill="#0f172a"/>
  <defs>
    <linearGradient id="eGrad" x1="0" y1="0" x2="1" y2="1">
      <stop offset="0%" stop-color="#60a5fa"/>
      <stop offset="50%" stop-color="#3b82f6"/>
      <stop offset="100%" stop-color="#1d4ed8"/>
    </linearGradient>
  </defs>
  <path d="M140 120 h232 c12 0 12 0 12 12 v40 c0 12 0 12 -12 12 H200 v68 h140 c12 0 12 0 12 12 v40 c0 12 0 12 -12 12 H200 v68 h172 c12 0 12 0 12 12 v40 c0 12 0 12 -12 12 H140 c-12 0-12 0-12-12 V132 c0-12 0-12 12-12z" fill="url(#eGrad)"/>
</svg>