<svg width="512" height="512" viewBox="0 0 512 512" xmlns="http://www.w3.org/2000/svg" role="img" aria-label="EconoPulse wave identity">
  <defs>
    <linearGradient id="gradA2" x1="0%" y1="0%" x2="100%" y2="100%">
      <stop offset="0%" stop-color="#3CCBFF"/>
      <stop offset="38%" stop-color="#1FA4F5"/>
      <stop offset="100%" stop-color="#0A56E8"/>
    </linearGradient>
    <linearGradient id="gradB2" x1="0%" y1="0%" x2="100%" y2="0%">
      <stop offset="0%" stop-color="#0EA5E9" stop-opacity="0"/>
      <stop offset="45%" stop-color="#38BDF8" stop-opacity="0.55"/>
      <stop offset="100%" stop-color="#0EA5E9" stop-opacity="0"/>
    </linearGradient>
    <radialGradient id="vgr" cx="50%" cy="45%" r="70%">
      <stop offset="0%" stop-color="#123048" stop-opacity="0.9"/>
      <stop offset="100%" stop-color="#06101B"/>
    </radialGradient>
    <filter id="innerGlow" x="-40%" y="-40%" width="180%" height="180%">
      <feGaussianBlur stdDeviation="16" result="blur"/>
      <feMerge>
        <feMergeNode in="blur"/>
        <feMergeNode in="SourceGraphic"/>
      </feMerge>
    </filter>
  </defs>
  <rect width="512" height="512" rx="128" fill="#07101C"/>
  <rect width="512" height="512" rx="128" fill="url(#vgr)"/>
  <path d="M92 288c29-4 43-21 60-50 11-21 17-32 25-32 8 0 13 14 20 45 6 23 11 34 19 34 9 0 15-16 24-57 6-27 10-40 18-40 9 0 14 15 23 52 7 28 12 42 21 42 9 0 15-15 26-46 11-30 17-46 26-46 7 0 13 9 24 32 16 33 28 48 56 52" stroke="url(#gradA2)" stroke-width="34" stroke-linecap="round" stroke-linejoin="round" fill="none" filter="url(#innerGlow)"/>
  <path d="M92 288c29-4 43-21 60-50 11-21 17-32 25-32 8 0 13 14 20 45 6 23 11 34 19 34 9 0 15-16 24-57 6-27 10-40 18-40 9 0 14 15 23 52 7 28 12 42 21 42 9 0 15-15 26-46 11-30 17-46 26-46 7 0 13 9 24 32 16 33 28 48 56 52" stroke="url(#gradB2)" stroke-width="20" stroke-linecap="round" stroke-linejoin="round" fill="none" opacity="0.6"/>
  <path d="M182 190c0-28 20-44 58-44h98c10 0 16 6 16 16s-6 16-16 16h-74c-8 0-12 4-12 12s4 12 12 12h57c11 0 17 6 17 16s-6 16-17 16h-57c-8 0-12 4-12 12s4 12 12 12h74c10 0 16 6 16 16s-6 16-16 16h-98c-38 0-58-16-58-44v-56z" fill="url(#gradA2)"/>
  <circle cx="356" cy="210" r="18" fill="#38BDF8" fill-opacity="0.35"/>
  <circle cx="356" cy="210" r="6" fill="#38BDF8"/>
  <title>EconoPulse Wave Identity (cache-bust)</title>
  <desc>Alternate brand asset to force refresh in clients; wave plus stylized E.</desc>
</svg>